<svg width="168" height="28" viewBox="0 0 168 28" fill="none" xmlns="http://www.w3.org/2000/svg">
    <path opacity="0.8" d="M150.97 21.6038C149.279 23.3327 147.125 24.5102 144.779 24.9872C142.434 25.4643 140.003 25.2195 137.794 24.2838C135.584 23.3481 133.696 21.7636 132.367 19.7306C131.039 17.6976 130.33 15.3075 130.33 12.8624C130.33 10.4173 131.039 8.02717 132.367 5.99418C133.696 3.96119 135.584 2.37667 137.794 1.441C140.003 0.505332 142.434 0.260537 144.779 0.737573C147.125 1.21461 149.279 2.39205 150.97 4.121L149.634 5.48773C148.207 4.02918 146.39 3.03591 144.411 2.6335C142.432 2.2311 140.381 2.43765 138.517 3.22703C136.654 4.0164 135.061 5.35316 133.94 7.06825C132.819 8.78333 132.221 10.7997 132.221 12.8624C132.221 14.9252 132.819 16.9416 133.94 18.6566C135.061 20.3717 136.654 21.7085 138.517 22.4979C140.381 23.2872 142.432 23.4938 144.411 23.0914C146.39 22.689 148.207 21.6957 149.634 20.2372L150.97 21.6038ZM1.77122 12.8317V24.4008H0.000488258V12.8317C-0.0135974 11.2696 0.277214 9.72029 0.855901 8.27452C1.93795 5.56109 4.00219 3.37915 6.61858 2.18323C7.90621 1.59069 9.30311 1.28728 10.7151 1.29346H17.5878V3.22663H10.715C9.5198 3.21676 8.33688 3.47337 7.24858 3.97859C6.18215 4.47681 5.2193 5.17996 4.41243 6.04977C3.58771 6.9362 2.93123 7.97158 2.4764 9.10319C2.00117 10.2857 1.76143 11.5533 1.77122 12.8317ZM17.6806 13.8291H20.5639V24.4314H35.6603V22.4981H22.3346V13.8292H35.6603V11.8959H22.3346V3.25753H35.6603V1.29361H20.5639V11.8959H17.6806V13.8291ZM125.264 1.35471H127.065V24.3085H125.264V4.54629L112.149 24.3085H110.318V1.35471H112.149V21.1171L125.264 1.35471ZM161.367 24.4313H159.567V3.25753H152.904V1.29361H168V3.25753H161.367V24.4313ZM85.706 13.8292H89.9616L89.9627 24.4314H91.7935L91.7822 13.8292H104.896L104.936 24.4314H106.736L106.676 1.35486H104.875L104.894 11.8959H91.7754L91.7334 1.35486H89.9325L89.9581 11.8959H85.7057C85.4614 8.71125 84.0207 5.74701 81.6857 3.62465C79.3507 1.5023 76.3027 0.386665 73.1809 0.51167C70.059 0.636675 67.1058 1.99261 64.9402 4.29517C62.7747 6.59774 61.5652 9.66811 61.5652 12.8625C61.5652 16.0569 62.7747 19.1273 64.9402 21.4299C67.1058 23.7324 70.059 25.0884 73.1809 25.2134C76.3027 25.3384 79.3507 24.2227 81.6857 22.1004C84.0207 19.978 85.4617 17.0138 85.706 13.8292ZM73.6153 13.8292H83.8083C83.5651 16.4997 82.325 18.9719 80.3456 20.7319C78.3662 22.4919 75.7996 23.4045 73.1792 23.2801C70.5589 23.1557 68.0861 22.0038 66.2748 20.0637C64.4634 18.1237 63.4527 15.5447 63.4527 12.8625C63.4527 10.1804 64.4634 7.60138 66.2748 5.66133C68.0861 3.72128 70.5589 2.56937 73.1792 2.44493C75.7996 2.3205 78.3662 3.2331 80.3456 4.99314C82.325 6.75317 83.5651 9.2253 83.8083 11.8959H73.6153V13.8292ZM43.9842 3.11997H55.4304L55.4866 22.4102L44.0365 22.4334L43.9842 3.11997ZM42.2072 1.35486H42.1757L42.2058 22.4241L37.9666 22.4366V27.5H39.7973V24.3085H59.6657V27.4693H61.4966V22.4061L57.2874 22.408L57.2339 1.35501L42.2072 1.35486Z" fill="#52545A"/>
</svg>
