<svg width="67" height="66" viewBox="0 0 67 66" fill="none" xmlns="http://www.w3.org/2000/svg">
    <path d="M50.2309 19.8405L44.406 27.8654C45.1366 23.9682 44.4258 21.3678 42.3591 20.1828C41.6548 19.7747 40.8519 19.5706 39.9765 19.5706C36.2841 19.5706 31.2293 23.1782 26.0889 30.525L11.2009 50.6302L21.8568 28.9385L17.2562 26.055C15.92 28.4184 12.8793 34.5737 7.35056 38.0101L9.34484 40.4591C12.1948 38.6619 14.0969 36.1339 15.9793 33.7508C15.9924 33.7574 15.9859 33.7508 15.999 33.764L3 61.2225L5.82359 63L21.5475 41.7889C21.0209 45.1924 21.587 47.9047 23.4562 48.9778C24.1012 49.3464 24.8515 49.5242 25.6743 49.5242C29.7352 49.5242 35.6259 45.2056 39.9831 38.629C39.9962 38.629 40.0028 38.6224 40.016 38.6158C41.6285 38.912 43.1818 39.0569 44.6693 39.0569C58.0896 39.0569 65.7376 27.635 54.621 18.8069L64 6.08817L57.4511 2C45.8738 2 45.9725 15.4034 50.2375 19.8471L50.2309 19.8405ZM37.3964 37.1082C33.8883 42.3222 29.4193 45.9232 26.7142 45.9232C26.3324 45.9232 25.9902 45.8507 25.6874 45.7059C23.3246 44.5604 24.6936 38.4051 28.3333 32.6646L28.432 32.5263C28.432 32.5263 28.6821 32.1182 28.8138 31.9207C32.3153 26.7199 36.4486 23.2111 39.0748 23.2111C39.4499 23.2111 39.7988 23.2835 40.1081 23.4349C42.5697 24.6265 41.3981 31.157 37.3898 37.1017L37.3964 37.1082ZM45.9527 34.9687C45.0445 34.9687 44.0901 34.9029 43.0897 34.7515L52.7122 21.6838C60.0246 27.1544 55.6148 34.9621 45.9527 34.9621V34.9687ZM60.6696 4.75178L52.1594 16.5094C50.9154 15.1467 50.2375 11.2626 51.8369 7.98414C53.0216 5.5681 55.9636 4.4687 58.5371 4.4687C59.3006 4.4687 60.0246 4.56745 60.6696 4.75178Z" fill="#1BFE6F"/>
    <path d="M46.9622 15.4057C47.3457 17.091 48.0237 18.6702 48.9595 19.8898L45.6611 24.434C45.5167 22.1395 44.6466 20.3428 42.8587 19.3166C41.9888 18.8129 41.0106 18.5706 39.9765 18.5706C37.8197 18.5706 35.4204 19.6132 32.9662 21.4999C30.4982 23.3972 27.885 26.2154 25.2773 29.9407L16.9631 41.1684L22.7544 29.3794L23.152 28.57L22.3879 28.0912L17.7872 25.2077L16.9006 24.652L16.3856 25.5629C16.2648 25.7766 16.1322 26.0168 15.9872 26.2794C14.4777 29.0127 11.6271 34.1746 6.82266 37.1608L5.85772 37.7606L6.57515 38.6416L8.56943 41.0906L9.12887 41.7775L9.87826 41.305C10.6956 40.7895 11.4387 40.2176 12.1247 39.6109L2.09616 60.7947L1.71666 61.5963L2.46726 62.0688L5.29085 63.8463L6.07507 64.34L6.62693 63.5955L20.3972 45.0198C20.439 45.5383 20.5167 46.0335 20.6333 46.4997C20.9876 47.9172 21.7221 49.1353 22.9583 49.845L22.96 49.846C23.7795 50.3144 24.7066 50.5242 25.6743 50.5242C28.0207 50.5242 30.7214 49.2982 33.3192 47.3416C35.807 45.4679 38.3057 42.8462 40.4617 39.7075C41.9078 39.9413 43.312 40.0569 44.6693 40.0569C51.6274 40.0569 57.2946 37.0939 59.7206 32.7282C60.9418 30.5304 61.3165 28.0062 60.6072 25.4299C59.9637 23.0925 58.4473 20.7775 55.9861 18.6407L64.8048 6.68167L65.4461 5.81206L64.5295 5.23989L57.9807 1.15172L57.7376 1H57.4511C54.3538 1 51.9488 1.90132 50.1905 3.40339C48.4418 4.89731 47.4102 6.91886 46.9284 9.03517C46.4473 11.1482 46.5041 13.3925 46.9622 15.4057ZM58.5371 5.4687C58.6631 5.4687 58.7874 5.47173 58.9098 5.47766L52.2734 14.6464C52.1109 14.1603 51.9835 13.5653 51.9286 12.8848C51.8156 11.4828 52.0265 9.87631 52.7355 8.42281C53.683 6.49281 56.1562 5.4687 58.5371 5.4687ZM29.2458 33.1075L29.2663 33.0788L29.2847 33.0488L29.2848 33.0486L29.2852 33.0479L29.2872 33.0447L29.295 33.032L29.3243 32.9844C29.3492 32.944 29.3837 32.8882 29.4222 32.8265C29.5009 32.7002 29.5883 32.5618 29.6447 32.4771C31.3554 29.9365 33.2049 27.8336 34.9197 26.378C36.6836 24.8807 38.1373 24.2111 39.0748 24.2111C39.3209 24.2111 39.5155 24.2582 39.6685 24.3331L39.6724 24.335C39.8999 24.4451 40.1649 24.7298 40.3048 25.4323C40.4442 26.1327 40.4225 27.1062 40.1932 28.2968C39.7366 30.6675 38.5028 33.6623 36.5607 36.5426L36.1005 37.2252C34.5126 39.4657 32.7658 41.3491 31.1203 42.6974C29.2624 44.22 27.7014 44.9232 26.7142 44.9232C26.4627 44.9232 26.2718 44.8764 26.1215 44.805C25.9265 44.7096 25.692 44.466 25.5768 43.8173C25.4606 43.1636 25.501 42.2473 25.7382 41.1131C26.2088 38.863 27.3998 36.0098 29.1632 33.2231L29.2458 33.1075ZM45.9527 33.9621H45.4687C45.2908 33.9573 45.1111 33.9497 44.9296 33.9393L52.8956 23.1213C54.111 24.2012 54.8209 25.3151 55.1443 26.3617C55.528 27.6033 55.3908 28.8179 54.8142 29.9064C53.6481 32.1078 50.5527 33.9621 45.9527 33.9621Z" stroke="#1A1A1A" stroke-width="2"/>
</svg>
